<?xml version="1.0" standalone="no"?>
<!DOCTYPE svg PUBLIC "-//W3C//DTD SVG 20010904//EN"
 "http://www.w3.org/TR/2001/REC-SVG-20010904/DTD/svg10.dtd">
<svg version="1.0" xmlns="http://www.w3.org/2000/svg"
 width="230.000000pt" height="230.000000pt" viewBox="0 0 230.000000 230.000000"
 preserveAspectRatio="xMidYMid meet">

<g transform="translate(0.000000,230.000000) scale(0.100000,-0.100000)"
fill="#000000" stroke="none">
<path d="M985 2216 c-459 -76 -818 -417 -911 -866 -24 -115 -24 -325 0 -440
46 -219 179 -454 339 -595 548 -485 1396 -324 1721 326 155 308 154 679 -2
983 -150 292 -401 491 -721 572 -120 31 -309 40 -426 20z m425 -55 c108 -29
155 -47 240 -92 103 -56 196 -127 273 -208 438 -464 373 -1204 -138 -1584
-204 -152 -414 -215 -682 -204 -213 8 -374 60 -549 177 -225 151 -402 421
-450 687 -22 125 -15 343 15 454 108 399 414 692 812 779 124 26 364 22 479
-9z"/>
<path d="M848 1710 c-20 -4 -56 -19 -78 -35 -40 -27 -165 -158 -184 -192 -19
-34 -25 -88 -14 -137 9 -44 22 -62 112 -154 115 -118 158 -146 231 -146 53 0
125 28 125 48 0 7 -18 30 -40 51 -34 33 -46 39 -77 37 -33 -3 -43 4 -130 91
-67 67 -93 100 -93 118 0 34 155 189 189 189 16 0 53 -28 117 -92 83 -81 94
-96 94 -126 0 -25 10 -47 36 -78 19 -24 41 -44 48 -44 17 0 44 50 52 96 12 78
-9 120 -115 227 -53 55 -108 107 -123 118 -33 24 -101 37 -150 29z"/>
<path d="M959 1332 c-15 -13 -22 -30 -22 -52 0 -28 19 -51 169 -201 110 -109
177 -169 191 -169 32 0 73 38 73 68 0 21 -36 63 -173 199 -114 115 -180 173
-194 173 -11 0 -31 -8 -44 -18z"/>
<path d="M1343 1210 c-18 -4 -44 -15 -58 -24 -29 -19 -25 -34 24 -81 25 -23
39 -29 68 -27 33 3 43 -4 130 -91 120 -120 120 -123 15 -229 -106 -105 -109
-105 -230 16 -90 90 -94 96 -88 128 5 30 2 38 -38 77 -27 26 -49 40 -56 36
-38 -23 -52 -138 -25 -203 20 -46 186 -216 240 -244 52 -27 127 -27 180 0 61
31 208 188 223 238 29 98 12 136 -121 272 -95 95 -119 115 -161 127 -54 16
-56 16 -103 5z"/>
</g>
</svg>
